<svg xmlns="http://www.w3.org/2000/svg">
    <symbol id="icon_close" enable-background="new 0 0 32 32" viewBox="0 0 32 32" xmlns="http://www.w3.org/2000/svg">
        <path d="m17.459 16.01l8.239-8.194c.395-.391.395-1.024 0-1.414-.394-.391-1.034-.391-1.428 0l-8.232 8.187-8.308-8.309c-.394-.395-1.034-.395-1.428 0-.394.396-.394 1.037 0 1.432l8.302 8.303-8.332 8.286c-.394.391-.394 1.024 0 1.414.394.391 1.034.391 1.428 0l8.325-8.279 8.275 8.276c.394.395 1.034.395 1.428 0 .394-.396.394-1.037 0-1.432l-8.269-8.27"/>
    </symbol>

    <symbol id="icon_search" enable-background="new 0 0 20 20" viewBox="0 0 20 20" xmlns="http://www.w3.org/2000/svg">
        <path d="m14.1 12.3h-1.1c1.1-1.3 1.8-3 1.8-4.9 0-4.1-3.3-7.4-7.4-7.4s-7.4 3.3-7.4 7.4c0 4.1 3.3 7.4 7.4 7.4 1.9 0 3.6-.7 4.9-1.8v1.1l5.9 5.9 1.8-1.8-5.9-5.9m-6.7.1c-2.8 0-5-2.2-5-5 0-2.8 2.2-5 5-5s5 2.2 5 5c0 2.8-2.2 5-5 5"/>
    </symbol>

    <symbol id="icon_search" enable-background="new 0 0 20 20" viewBox="0 0 20 20" xmlns="http://www.w3.org/2000/svg">
        <path d="m14.1 12.3h-1.1c1.1-1.3 1.8-3 1.8-4.9 0-4.1-3.3-7.4-7.4-7.4s-7.4 3.3-7.4 7.4c0 4.1 3.3 7.4 7.4 7.4 1.9 0 3.6-.7 4.9-1.8v1.1l5.9 5.9 1.8-1.8-5.9-5.9m-6.7.1c-2.8 0-5-2.2-5-5 0-2.8 2.2-5 5-5s5 2.2 5 5c0 2.8-2.2 5-5 5"/>
    </symbol>
</svg>